<svg width="48" height="48" viewBox="0 0 48 48" fill="none" xmlns="http://www.w3.org/2000/svg">
<path d="M42 35.5714V13.4286C42 12.254 42 9 42 9C42 9 39.0609 9 38 9H10.0001C8.9392 9 6 9 6 9C6 9 6.00007 12.254 6.00007 13.4286V35.5714C6.00007 36.746 6.00031 40 6.00031 40C6.00031 40 8.9392 40 10.0001 40H38C39.0609 40 42 40 42 40C42 40 42 36.746 42 35.5714Z" stroke="#666666" stroke-width="3" stroke-linecap="square"/>
<path d="M12 17C12.8513 17.5781 24 24 24 24C24 24 35.1487 17.5781 36 17" stroke="#666666" stroke-width="3" stroke-linecap="square"/>
</svg>
