<svg width="24" height="24" viewBox="0 0 24 24" fill="none" xmlns="http://www.w3.org/2000/svg">
<path d="M8.66406 7.41683V5.3335M15.3307 7.41683V5.3335" stroke="#666666" stroke-width="1.5" stroke-linecap="square"/>
<path fill-rule="evenodd" clip-rule="evenodd" d="M8.74951 5.8336H6.16536L5.66581 5.83361L5.43115 5.83362L5.35876 5.83362L5.33895 5.83362L5.33378 5.83362L5.33247 5.83362H5.33213H5.33205H5.33203L5.33204 6.58362L5.33202 5.83362L4.58204 6.58361L5.33204 6.58362L4.58204 6.58361V6.58363V6.58372V6.58405L4.58204 6.58537L4.58204 6.59054L4.58204 6.61035L4.58204 6.68273L4.58204 6.91739L4.58203 7.41694V10.7503L5.33203 11.5003H18.6654L19.4154 10.7503V7.41694L19.4158 6.91818L19.4161 6.68358L19.4161 6.61121L19.4162 6.59141L19.4162 6.58625L19.4162 6.58493V6.5846L19.4162 6.58452V6.58449L18.666 5.8335H18.666H18.6659H18.6656H18.6643H18.6591L18.6393 5.8335L18.5668 5.83351L18.3319 5.83355L17.832 5.8336H16.9162V7.3336H17.832L17.9154 7.33359L17.9154 7.41694V10.0003H6.08203V7.41694L6.08203 7.3336L6.16536 7.3336H8.74951V5.8336ZM10.2495 7.3336H15.4162V5.8336H10.2495V7.3336Z" fill="#666666"/>
<path d="M5.33203 10.7502H18.6654V17.8752C18.6654 18.0852 18.6654 18.6669 18.6654 18.6669C18.6654 18.6669 18.053 18.6669 17.832 18.6669H6.16536C5.94435 18.6669 5.33204 18.6669 5.33204 18.6669C5.33204 18.6669 5.33203 18.0852 5.33203 17.8752V10.7502Z" stroke="#666666" stroke-width="1.5" stroke-linecap="square" stroke-linejoin="bevel"/>
</svg>
