<svg width="40" height="40" viewBox="0 0 40 40" fill="none" xmlns="http://www.w3.org/2000/svg">
<rect width="40" height="40" rx="20" fill="#FF4D06"/>
<path d="M30.0758 26.9989H27.5574C26.6051 26.9989 26.3181 26.2085 24.6109 24.4581C23.1189 22.9848 22.4888 22.8016 22.1113 22.8016C21.5893 22.8016 21.447 22.9486 21.447 23.6847V26.005C21.447 26.6325 21.2483 27 19.6482 27C18.0958 26.8931 16.5904 26.4099 15.2559 25.5902C13.9215 24.7704 12.7962 23.6375 11.9728 22.2849C10.0184 19.7912 8.65818 16.8652 8 13.7389C8 13.3522 8.14346 13.0016 8.86299 13.0016H11.3791C12.0258 13.0016 12.2587 13.2968 12.5125 13.9786C13.7341 17.6625 15.8188 20.867 16.6652 20.867C16.9897 20.867 17.1309 20.72 17.1309 19.8911V16.0964C17.0239 14.3653 16.1267 14.2194 16.1267 13.593C16.138 13.4278 16.2118 13.2735 16.3324 13.1631C16.4529 13.0527 16.6107 12.9948 16.7723 13.0016H20.7275C21.2682 13.0016 21.447 13.2775 21.447 13.9401V19.0623C21.447 19.6152 21.6787 19.7984 21.8421 19.7984C22.1665 19.7984 22.4159 19.6152 23.0107 19.0069C24.2852 17.4133 25.3269 15.6384 26.1029 13.7377C26.182 13.5093 26.332 13.3137 26.5299 13.181C26.7279 13.0482 26.9628 12.9856 27.1988 13.0028H29.716C30.4709 13.0028 30.6309 13.3895 30.4709 13.9413C29.5551 16.0425 28.4222 18.0372 27.0917 19.8911C26.8203 20.3152 26.7121 20.5357 27.0917 21.0332C27.3411 21.4199 28.224 22.1752 28.8166 22.8932C29.6796 23.7752 30.3958 24.7951 30.9377 25.9122C31.154 26.6314 30.7942 26.9989 30.0758 26.9989Z" fill="white"/>
</svg>
