<svg width="40" height="40" viewBox="0 0 40 40" fill="none" xmlns="http://www.w3.org/2000/svg">
<rect width="40" height="40" rx="20" fill="#FF4D06"/>
<path d="M28.0498 11.9101C27.1329 10.9842 26.0408 10.25 24.8373 9.75042C23.6338 9.25081 22.3429 8.99574 21.0398 9.00005C15.5798 9.00005 11.1298 13.4501 11.1298 18.9101C11.1298 20.6601 11.5898 22.3601 12.4498 23.8601L11.0498 29.0001L16.2998 27.6201C17.7498 28.4101 19.3798 28.8301 21.0398 28.8301C26.4998 28.8301 30.9498 24.3801 30.9498 18.9201C30.9498 16.2701 29.9198 13.7801 28.0498 11.9101ZM21.0398 27.1501C19.5598 27.1501 18.1098 26.7501 16.8398 26.0001L16.5398 25.8201L13.4198 26.6401L14.2498 23.6001L14.0498 23.2901C13.2274 21.9771 12.7907 20.4593 12.7898 18.9101C12.7898 14.3701 16.4898 10.6701 21.0298 10.6701C23.2298 10.6701 25.2998 11.5301 26.8498 13.0901C27.6174 13.8539 28.2257 14.7626 28.6394 15.7634C29.0531 16.7642 29.264 17.8371 29.2598 18.9201C29.2798 23.4601 25.5798 27.1501 21.0398 27.1501ZM25.5598 20.9901C25.3098 20.8701 24.0898 20.2701 23.8698 20.1801C23.6398 20.1001 23.4798 20.0601 23.3098 20.3001C23.1398 20.5501 22.6698 21.1101 22.5298 21.2701C22.3898 21.4401 22.2398 21.4601 21.9898 21.3301C21.7398 21.2101 20.9398 20.9401 19.9998 20.1001C19.2598 19.4401 18.7698 18.6301 18.6198 18.3801C18.4798 18.1301 18.5998 18.0001 18.7298 17.8701C18.8398 17.7601 18.9798 17.5801 19.0998 17.4401C19.2198 17.3001 19.2698 17.1901 19.3498 17.0301C19.4298 16.8601 19.3898 16.7201 19.3298 16.6001C19.2698 16.4801 18.7698 15.2601 18.5698 14.7601C18.3698 14.2801 18.1598 14.3401 18.0098 14.3301H17.5298C17.3598 14.3301 17.0998 14.3901 16.8698 14.6401C16.6498 14.8901 16.0098 15.4901 16.0098 16.7101C16.0098 17.9301 16.8998 19.1101 17.0198 19.2701C17.1398 19.4401 18.7698 21.9401 21.2498 23.0101C21.8398 23.2701 22.2998 23.4201 22.6598 23.5301C23.2498 23.7201 23.7898 23.6901 24.2198 23.6301C24.6998 23.5601 25.6898 23.0301 25.8898 22.4501C26.0998 21.8701 26.0998 21.3801 26.0298 21.2701C25.9598 21.1601 25.8098 21.1101 25.5598 20.9901Z" fill="white"/>
</svg>
