<svg width="1401" height="236" viewBox="0 0 1401 236" fill="none" xmlns="http://www.w3.org/2000/svg">
<g opacity="0.05">
<path fill-rule="evenodd" clip-rule="evenodd" d="M1269.67 137.835H1291.45L1335 199.082L1378.56 137.835H1400.33L1330.64 235.838H1308.86L1335 199.087H1313.23L1269.67 137.835Z" fill="white"/>
<path fill-rule="evenodd" clip-rule="evenodd" d="M1198.89 137.835C1171.83 137.835 1149.89 159.774 1149.89 186.837C1149.89 213.899 1171.83 235.838 1198.89 235.838H1239.19V235.838H1258.79V177.036H1239.19H1230.47L1208.26 196.637H1239.19V216.237H1198.89C1182.65 216.237 1169.49 203.074 1169.49 186.837C1169.49 170.599 1182.65 157.436 1198.89 157.436H1244.63L1258.78 137.835H1198.89Z" fill="white"/>
<path fill-rule="evenodd" clip-rule="evenodd" d="M1090 157.436H1035.56C1019.32 157.436 1006.15 170.599 1006.15 186.837C1006.15 203.074 1019.32 216.237 1035.56 216.237H1090C1106.24 216.237 1119.4 203.074 1119.4 186.837C1119.4 170.599 1106.24 157.436 1090 157.436ZM1035.56 137.835C1008.49 137.835 986.554 159.774 986.554 186.837C986.554 213.899 1008.49 235.838 1035.56 235.838H1090C1117.06 235.838 1139 213.899 1139 186.837C1139 159.774 1117.06 137.835 1090 137.835H1035.56Z" fill="white"/>
<path fill-rule="evenodd" clip-rule="evenodd" d="M886.379 137.835L866.778 153.777V216.237H886.379V137.835ZM886.38 216.238L886.38 235.838L975.672 235.838V216.238L886.38 216.238Z" fill="white"/>
<path fill-rule="evenodd" clip-rule="evenodd" d="M806.883 157.436H752.437C736.199 157.436 723.036 170.599 723.036 186.837C723.036 203.074 736.199 216.237 752.437 216.237H806.883C823.121 216.237 836.284 203.074 836.284 186.837C836.284 170.599 823.121 157.436 806.883 157.436ZM752.437 137.835C725.374 137.835 703.435 159.774 703.435 186.837C703.435 213.899 725.374 235.838 752.437 235.838H806.883C833.946 235.838 855.884 213.899 855.884 186.837C855.884 159.774 833.946 137.835 806.883 137.835H752.437Z" fill="white"/>
<path fill-rule="evenodd" clip-rule="evenodd" d="M561.866 137.835H581.466V235.838H561.866V137.835ZM672.938 137.835H692.539V235.838H672.94H672.938H651.161L581.47 137.835H603.249L672.938 235.836V137.835Z" fill="white"/>
<path fill-rule="evenodd" clip-rule="evenodd" d="M422.485 137.835H442.086V196.635L465.392 177.036H531.375V196.637H442.086V235.838H422.485V137.835ZM531.377 137.835H550.978V235.838H531.377V137.835Z" fill="white"/>
<path fill-rule="evenodd" clip-rule="evenodd" d="M302.708 186.837C302.708 159.774 324.646 137.835 351.709 137.835H411.6L386.99 157.436H351.709C335.471 157.436 322.308 170.599 322.308 186.837C322.308 203.074 335.471 216.237 351.709 216.237H386.99L411.6 235.838H351.709C324.646 235.838 302.708 213.899 302.708 186.837Z" fill="white"/>
<path fill-rule="evenodd" clip-rule="evenodd" d="M177.81 138.096V157.152H196.866L177.81 172.491V217.043H196.866V157.152L289.425 157.152V138.096L177.81 138.096ZM196.867 236.099L196.867 217.043L289.425 217.043V236.099L196.867 236.099ZM196.867 196.626L219.718 177.57L289.425 177.57V196.626L196.867 196.626Z" fill="white"/>
<path fill-rule="evenodd" clip-rule="evenodd" d="M79.8074 138.096H98.8635V138.096L177.81 138.096L153.989 157.152L98.8635 157.152V236.099H79.8074V157.152L79.807 157.152L0.85791 157.152V138.096L79.807 138.096V138.096L79.8074 138.096V138.096Z" fill="white"/>
<path fill-rule="evenodd" clip-rule="evenodd" d="M177.808 0.891362V19.9475H196.864L177.808 35.2865V79.8382H196.864V19.9475L289.423 19.9475V0.891357L177.808 0.891362ZM196.865 98.8945L196.865 79.8384L289.423 79.8384V98.8945L196.865 98.8945ZM196.865 59.4213L219.716 40.3651L289.423 40.3651V59.4213L196.865 59.4213Z" fill="white"/>
<path fill-rule="evenodd" clip-rule="evenodd" d="M79.8069 0.891357H98.863V0.8915L177.808 0.891503L153.986 19.9476L98.863 19.9476V98.8943H79.8069V19.9476L79.8049 19.9476L0.857422 19.9476V0.891503L79.8049 0.8915V0.891499L79.8069 0.8915V0.891357Z" fill="white"/>
<path fill-rule="evenodd" clip-rule="evenodd" d="M412.472 40.0925L389.244 59.6932L365.433 59.6932V59.6932L302.71 59.6932L325.939 40.0926L349.75 40.0926V40.0925L412.472 40.0925Z" fill="white"/>
</g>
</svg>
