<svg width="238" height="40" viewBox="0 0 238 40" fill="none" xmlns="http://www.w3.org/2000/svg">
<path fill-rule="evenodd" clip-rule="evenodd" d="M214.937 23.3334H218.624L225.997 33.7016L233.37 23.3334H237.056L225.259 39.924H221.572L225.996 33.7025H222.311L214.937 23.3334Z" fill="#232323"/>
<path fill-rule="evenodd" clip-rule="evenodd" d="M202.955 23.3334C198.374 23.3334 194.66 27.0474 194.66 31.6287C194.66 36.2101 198.374 39.924 202.955 39.924H209.776V39.924H213.094V29.9697H209.776H208.3L204.541 33.2878H209.776V36.6059H202.955C200.206 36.6059 197.978 34.3775 197.978 31.6287C197.978 28.8799 200.206 26.6515 202.955 26.6515H210.697L213.094 23.3334H202.955Z" fill="#232323"/>
<path fill-rule="evenodd" clip-rule="evenodd" d="M184.522 26.6515H175.305C172.556 26.6515 170.327 28.8799 170.327 31.6287C170.327 34.3775 172.556 36.6059 175.305 36.6059H184.522C187.27 36.6059 189.499 34.3775 189.499 31.6287C189.499 28.8799 187.27 26.6515 184.522 26.6515ZM175.305 23.3334C170.723 23.3334 167.009 27.0474 167.009 31.6287C167.009 36.2101 170.723 39.924 175.305 39.924H184.522C189.103 39.924 192.817 36.2101 192.817 31.6287C192.817 27.0474 189.103 23.3334 184.522 23.3334H175.305Z" fill="#232323"/>
<path fill-rule="evenodd" clip-rule="evenodd" d="M150.051 23.3334L146.733 26.0322V36.6059H150.051V23.3334ZM150.051 36.6059L150.051 39.924L165.167 39.924V36.6059L150.051 36.6059Z" fill="#232323"/>
<path fill-rule="evenodd" clip-rule="evenodd" d="M136.593 26.6515H127.376C124.628 26.6515 122.399 28.8799 122.399 31.6287C122.399 34.3775 124.628 36.6059 127.376 36.6059H136.593C139.342 36.6059 141.57 34.3775 141.57 31.6287C141.57 28.8799 139.342 26.6515 136.593 26.6515ZM127.376 23.3334C122.795 23.3334 119.081 27.0474 119.081 31.6287C119.081 36.2101 122.795 39.924 127.376 39.924H136.593C141.175 39.924 144.889 36.2101 144.889 31.6287C144.889 27.0474 141.175 23.3334 136.593 23.3334H127.376Z" fill="#232323"/>
<path fill-rule="evenodd" clip-rule="evenodd" d="M95.1157 23.3334H98.4338V39.924H95.1157V23.3334ZM113.919 23.3334H117.237V39.924H113.919H113.919H110.232L98.4345 23.3334H102.121L113.919 39.9235V23.3334Z" fill="#232323"/>
<path fill-rule="evenodd" clip-rule="evenodd" d="M71.5205 23.3334H74.8386V33.2874L78.784 29.9697L89.954 29.9697V33.2878H74.8386V39.924H71.5205V23.3334ZM89.9543 23.3334H93.2724V39.924H89.9543V23.3334Z" fill="#232323"/>
<path fill-rule="evenodd" clip-rule="evenodd" d="M51.2437 31.6287C51.2437 27.0474 54.9576 23.3334 59.5389 23.3334H69.6776L65.5115 26.6515H59.5389C56.7901 26.6515 54.5618 28.8799 54.5618 31.6287C54.5618 34.3775 56.7901 36.6059 59.5389 36.6059H65.5115L69.6776 39.924H59.5389C54.9576 39.924 51.2437 36.2101 51.2437 31.6287Z" fill="#232323"/>
<path fill-rule="evenodd" clip-rule="evenodd" d="M30.1006 23.3777V26.6036H33.3265L30.1006 29.2003V36.7422H33.3265V26.6036L48.9953 26.6036V23.3777L30.1006 23.3777ZM33.3266 39.9682L33.3266 36.7423L48.9954 36.7423V39.9682H33.3266ZM33.3266 33.286L37.195 30.06L48.9954 30.06V33.286L33.3266 33.286Z" fill="#232323"/>
<path fill-rule="evenodd" clip-rule="evenodd" d="M13.51 23.3777H16.736V23.3777L30.1005 23.3777L26.0679 26.6036L16.736 26.6036V39.9682H13.51V26.6036L13.51 26.6036L0.14502 26.6036V23.3777L13.51 23.3777V23.3777L13.51 23.3777V23.3777Z" fill="#232323"/>
<path fill-rule="evenodd" clip-rule="evenodd" d="M30.1001 0.150933V3.37686H33.326L30.1001 5.97354V13.5155H33.326V3.37686L48.9949 3.37686V0.150932L30.1001 0.150933ZM33.3261 16.7415L33.3261 13.5155L48.9949 13.5155V16.7415H33.3261ZM33.3261 10.0592L37.1946 6.83328L48.9949 6.83328V10.0592L33.3261 10.0592Z" fill="#FF4D06"/>
<path fill-rule="evenodd" clip-rule="evenodd" d="M13.51 0.150925H16.736V0.150949L30.1002 0.150949L26.0676 3.37688L16.736 3.37688V16.7414H13.51V3.37688L13.5097 3.37688L0.14502 3.37688V0.150949L13.5097 0.150949V0.150949L13.51 0.150949V0.150925Z" fill="#FF4D06"/>
<path fill-rule="evenodd" clip-rule="evenodd" d="M69.8257 6.78713L65.8935 10.1052L61.8626 10.1052V10.1053L51.2446 10.1053L55.1768 6.78714L59.2077 6.78714V6.78713L69.8257 6.78713Z" fill="#FF4D06"/>
</svg>
