<?xml version="1.0" encoding="utf-8"?><svg viewBox="0 0 48 48" xmlns="http://www.w3.org/2000/svg" xmlns:xlink="http://www.w3.org/1999/xlink"><style>:root>svg{display:none}:root>svg:target{display:block}</style><svg viewBox="0 0 12 9" id="icon-accept" xmlns="http://www.w3.org/2000/svg"><path d="m1 3 4 4 6-6"/></svg><svg viewBox="0 0 40 40" id="icon-arrow" xmlns="http://www.w3.org/2000/svg"><path d="M22.786 8.857 33.93 20 22.786 31.143"/><path d="M6 19h21v2H6z"/></svg><svg viewBox="0 0 14 8" id="icon-arrow-down" xmlns="http://www.w3.org/2000/svg"><path d="M13 1 7 7 1 1"/></svg><svg viewBox="0 0 24 24" id="icon-arrow-short" xmlns="http://www.w3.org/2000/svg"><path d="M16 8 6 18M5 5h14v14"/></svg><svg viewBox="0 0 14 8" id="icon-arrow-up" xmlns="http://www.w3.org/2000/svg"><path d="M13 7 7 1 1 7"/></svg><svg viewBox="0 0 25 24" id="icon-burger" xmlns="http://www.w3.org/2000/svg"><path d="M3.5 17h18l-2 2h-16v-2Zm0-6h18l-2 2h-16v-2Zm0-6h18l-2 2h-16V5Z"/></svg><svg viewBox="0 0 24 24" id="icon-calendar" xmlns="http://www.w3.org/2000/svg"><path d="M8.664 7.417V5.334m6.667 2.083V5.334"/><path fill-rule="evenodd" clip-rule="evenodd" d="M8.75 5.834H5.332v.75-.75l-.75.75h.75-.75v4.166l.75.75h13.333l.75-.75V6.918l.001-.234v-.099l-.75-.752h-1.75v1.5h.999V10H6.082V7.334H8.75v-1.5Zm1.5 1.5h5.166v-1.5H10.25v1.5Z"/><path d="M5.332 10.75h13.333v7.917H5.332V10.75Z"/></svg><svg viewBox="0 0 24 24" id="icon-cart" xmlns="http://www.w3.org/2000/svg"><path d="M3 7.8h18l-2.4 12H5.4L3 7.8ZM9.6 3l-2.4 7.8M14.4 3l2.4 7.8"/></svg><svg viewBox="0 0 12 9" id="icon-checkbox" xmlns="http://www.w3.org/2000/svg"><path d="m1 3 4 4 6-6"/></svg><svg viewBox="0 0 24 24" id="icon-clock" xmlns="http://www.w3.org/2000/svg"><circle cx="12" cy="12" r="10"/><path d="M11 7v6h6"/></svg><svg viewBox="0 0 34 34" id="icon-close" xmlns="http://www.w3.org/2000/svg"><path d="M5 26 26.213 4.787l2.121 2.121L7.121 28.121 5 26Z"/><path d="M28.334 26 7.121 4.787 5 6.908l21.213 21.213L28.334 26Z"/></svg><svg viewBox="0 0 24 24" id="icon-cursor" xmlns="http://www.w3.org/2000/svg"><path d="m20.125 3-6.708 18-3.834-7-6.708-4 17.25-7Z"/></svg><svg viewBox="0 0 24 24" id="icon-home" xmlns="http://www.w3.org/2000/svg"><path d="m2.594 7.086-.914.406.812 1.828.914-.406-.812-1.828ZM12 4l.406-.914-.406-.18-.406.18L12 4Zm8.594 4.914.914.406.812-1.828-.914-.406-.812 1.828ZM20 12v-1h-2v1h2Zm-1 8v1a1 1 0 0 0 1-1h-1ZM5 20H4a1 1 0 0 0 1 1v-1Zm0-2H4h1Zm1-6v-1H4v1h2ZM3.406 8.914l9-4-.812-1.828-9 4 .812 1.828Zm8.188-4 9 4 .812-1.828-9-4-.812 1.828ZM18 12v6h2v-6h-2Zm0 6v2h2v-2h-2Zm1 2v-1h-2v2h2v-1Zm-2-1H7v2h10v-2ZM7 19H5v2h2v-2Zm-2 1h1v-2H4v2h1Zm1-2v-6H4v6h2Z"/></svg><svg viewBox="0 0 48 48" id="icon-mail" xmlns="http://www.w3.org/2000/svg"><path d="M42 35.571V9H6v31h36v-4.429Z"/><path d="M12 17c.851.578 12 7 12 7s11.149-6.422 12-7"/></svg><svg viewBox="0 0 48 48" id="icon-phone" xmlns="http://www.w3.org/2000/svg"><path d="M35 8H13v33h22V8ZM19 13h10"/></svg><svg viewBox="0 0 24 24" id="icon-search" xmlns="http://www.w3.org/2000/svg"><rect x="3.75" y="3.75" width="13.5" height="13.5" rx="6.75"/><path d="m16.5 16.5 3.75 3.75"/></svg><svg viewBox="0 0 40 40" id="icon-slider-arrow" xmlns="http://www.w3.org/2000/svg"><path d="M22.786 8.857 33.928 20 22.787 31.143"/><path d="M6 19h21v2H6z"/></svg></svg>